<svg xmlns="http://www.w3.org/2000/svg" height="511pt" version="1.1" viewBox="-51 1 511 511.999" width="511pt">
<g id="surface1">
<path d="M 274.65625 386.507812 L 133.957031 386.507812 C 133.957031 386.507812 67.070312 415.824219 67.070312 504.5 L 341.539062 504.5 C 341.539062 415.824219 274.65625 386.507812 274.65625 386.507812 Z M 274.65625 386.507812 " style=" stroke:none;fill-rule:nonzero;fill:rgb(28.235294%,34.509804%,46.666667%);fill-opacity:1;" />
<path d="M 204.664062 7.5 C 167.070312 7.433594 131.859375 18.269531 101.90625 36.972656 L 97.886719 45.445312 L 89.421875 45.445312 C 40.171875 81.671875 8 140.273438 8 205.488281 L 8 228.734375 C 8 295.277344 61.941406 346.871094 128.484375 346.871094 L 128.484375 371.390625 C 128.484375 385.476562 139.902344 396.894531 153.992188 396.894531 L 159.074219 396.894531 L 166.574219 394.359375 L 174.074219 396.894531 L 197.164062 396.894531 L 204.664062 394.359375 L 212.164062 396.894531 L 235.257812 396.894531 L 242.757812 394.359375 L 250.257812 396.894531 L 255.339844 396.894531 C 269.425781 396.894531 280.847656 385.476562 280.847656 371.390625 L 280.847656 346.871094 C 347.390625 346.871094 401.332031 295.277344 401.332031 228.734375 L 401.332031 205.488281 C 401.332031 97.320312 312.832031 7.304688 204.664062 7.5 Z M 204.664062 7.5 " style=" stroke:none;fill-rule:nonzero;fill:rgb(93.72549%,92.941176%,93.333333%);fill-opacity:1;" />
<path d="M 38 228.734375 L 38 205.488281 C 38 102.363281 118.433594 15.742188 219.664062 8.054688 C 214.710938 7.679688 209.710938 7.492188 204.664062 7.5 C 96.496094 7.304688 8 97.320312 8 205.488281 L 8 228.734375 C 8 295.277344 61.941406 346.871094 128.484375 346.871094 C 61.941406 346.871094 38 295.277344 38 228.734375 Z M 38 228.734375 " style=" stroke:none;fill-rule:nonzero;fill:rgb(83.137255%,83.137255%,83.137255%);fill-opacity:1;" />
<path d="M 119.625 267.914062 C 115.484375 267.914062 112.125 271.273438 112.125 275.414062 L 112.125 293.859375 C 112.125 298 115.484375 301.359375 119.625 301.359375 C 123.765625 301.359375 127.125 298 127.125 293.859375 L 127.125 275.414062 C 127.125 271.273438 123.765625 267.914062 119.625 267.914062 Z M 119.625 267.914062 " style=" stroke:none;fill-rule:nonzero;fill:rgb(0%,0%,0%);fill-opacity:1;" />
<path d="M 281.488281 275.414062 L 281.488281 293.859375 C 281.488281 298 284.847656 301.359375 288.988281 301.359375 C 293.128906 301.359375 296.488281 298 296.488281 293.859375 L 296.488281 275.414062 C 296.488281 271.273438 293.128906 267.914062 288.988281 267.914062 C 284.847656 267.914062 281.488281 271.273438 281.488281 275.414062 Z M 281.488281 275.414062 " style=" stroke:none;fill-rule:nonzero;fill:rgb(0%,0%,0%);fill-opacity:1;" />
<path d="M 199.007812 292.773438 L 193.347656 304.515625 C 191.449219 308.453125 194.320312 313.027344 198.695312 313.027344 L 210.4375 313.027344 C 214.882812 313.027344 217.75 308.3125 215.707031 304.363281 L 209.625 292.621094 C 207.375 288.277344 201.132812 288.367188 199.007812 292.773438 Z M 199.007812 292.773438 " style=" stroke:none;fill-rule:nonzero;fill:rgb(0%,0%,0%);fill-opacity:1;" />
<path d="M 347.816406 70.101562 C 350.738281 67.164062 350.726562 62.414062 347.789062 59.496094 C 309.226562 21.117188 258.535156 0 205.042969 0 C 204.796875 0 204.558594 0 204.316406 0 C 150.667969 0 99.886719 21.199219 61.300781 59.71875 C 22.09375 98.855469 0.5 150.625 0.5 205.488281 L 0.5 228.734375 C 0.5 262.816406 13.839844 294.5625 38.058594 318.132812 C 60.316406 339.789062 89.527344 352.429688 120.984375 354.164062 L 120.984375 371.390625 C 120.984375 375.738281 121.835938 379.886719 123.371094 383.691406 C 114.933594 388.75 100.878906 398.789062 88.046875 415.480469 C 85.519531 418.765625 86.136719 423.472656 89.421875 426 C 92.707031 428.523438 97.414062 427.910156 99.9375 424.625 C 111.878906 409.089844 125.070312 400.074219 132.023438 396.011719 C 132.566406 396.492188 133.132812 396.945312 133.703125 397.394531 C 139.386719 401.894531 146.75 404.394531 153.992188 404.394531 L 255.339844 404.394531 C 263.203125 404.394531 271.0625 401.507812 277.035156 396.273438 C 283.488281 400.101562 294.90625 407.976562 305.761719 420.984375 C 323.085938 441.742188 332.527344 467.285156 333.875 497 L 303.160156 497 L 303.160156 465.441406 C 303.160156 461.296875 299.800781 457.941406 295.660156 457.941406 C 291.515625 457.941406 288.160156 461.296875 288.160156 465.441406 L 288.160156 497 L 211.808594 497 L 211.808594 480.667969 L 269.050781 480.667969 C 273.191406 480.667969 276.550781 477.308594 276.550781 473.167969 C 276.550781 469.023438 273.191406 465.667969 269.050781 465.667969 L 211.808594 465.667969 L 211.808594 447.085938 L 269.050781 447.085938 C 273.191406 447.085938 276.550781 443.726562 276.550781 439.585938 C 276.550781 435.441406 273.191406 432.085938 269.050781 432.085938 L 139.5625 432.085938 C 135.421875 432.085938 132.0625 435.441406 132.0625 439.585938 C 132.0625 443.726562 135.421875 447.085938 139.5625 447.085938 L 196.804688 447.085938 L 196.804688 465.667969 L 139.5625 465.667969 C 135.421875 465.667969 132.0625 469.023438 132.0625 473.167969 C 132.0625 477.308594 135.421875 480.667969 139.5625 480.667969 L 196.804688 480.667969 L 196.804688 497 L 120.457031 497 L 120.457031 465.441406 C 120.457031 461.296875 117.097656 457.941406 112.957031 457.941406 C 108.8125 457.941406 105.457031 461.296875 105.457031 465.441406 L 105.457031 497 L 74.742188 497 C 75.523438 480.101562 78.96875 464.394531 85.007812 450.207031 C 86.632812 446.398438 84.859375 441.992188 81.046875 440.367188 C 77.238281 438.746094 72.832031 440.519531 71.210938 444.328125 C 63.488281 462.460938 59.574219 482.703125 59.574219 504.5 C 59.574219 508.640625 62.929688 512 67.074219 512 L 341.542969 512 C 345.683594 512 349.042969 508.640625 349.042969 504.5 C 349.042969 467.960938 338.355469 436.628906 317.28125 411.375 C 305.691406 397.484375 293.59375 388.773438 285.820312 384.042969 C 287.445312 380.144531 288.347656 375.871094 288.347656 371.390625 L 288.347656 354.164062 C 319.804688 352.429688 349.015625 339.789062 371.273438 318.132812 C 395.496094 294.5625 408.832031 262.816406 408.832031 228.734375 L 408.832031 205.488281 C 408.832031 161.230469 394.785156 118.902344 368.207031 83.082031 C 365.738281 79.757812 361.042969 79.0625 357.714844 81.527344 C 354.390625 83.996094 353.695312 88.695312 356.160156 92.019531 C 380.804688 125.238281 393.832031 164.472656 393.832031 205.488281 L 393.832031 228.734375 C 393.832031 258.730469 382.105469 286.660156 360.8125 307.382812 C 339.613281 328.011719 311.214844 339.371094 280.847656 339.371094 C 276.707031 339.371094 273.347656 342.730469 273.347656 346.871094 C 273.347656 346.871094 273.347656 371.386719 273.347656 371.390625 C 273.347656 381.097656 265.164062 389.394531 255.34375 389.394531 L 250.257812 389.394531 L 250.257812 360.644531 C 250.257812 356.503906 246.902344 353.144531 242.757812 353.144531 C 238.617188 353.144531 235.257812 356.503906 235.257812 360.644531 L 235.257812 389.394531 L 212.164062 389.394531 L 212.164062 360.644531 C 212.164062 356.503906 208.808594 353.144531 204.664062 353.144531 C 200.523438 353.144531 197.164062 356.503906 197.164062 360.644531 L 197.164062 389.394531 L 174.074219 389.394531 L 174.074219 360.644531 C 174.074219 356.503906 170.714844 353.144531 166.574219 353.144531 C 162.433594 353.144531 159.074219 356.503906 159.074219 360.644531 L 159.074219 389.394531 L 153.992188 389.394531 C 144.191406 389.394531 135.984375 381.1875 135.984375 371.390625 L 135.984375 346.871094 C 135.984375 342.730469 132.625 339.371094 128.484375 339.371094 C 98.117188 339.371094 69.71875 328.011719 48.519531 307.382812 C 27.226562 286.660156 15.5 258.730469 15.5 228.734375 L 15.5 205.488281 C 15.5 154.636719 35.527344 106.636719 71.898438 70.332031 C 78.488281 63.753906 85.46875 57.71875 92.773438 52.253906 L 107.574219 82.3125 C 107.574219 82.3125 90.347656 82.3125 90.316406 82.3125 C 84.945312 82.3125 81.257812 88.0625 83.503906 92.945312 C 83.503906 92.945312 100.816406 130.597656 100.835938 130.644531 C 102.542969 134.355469 107.082031 136.027344 110.78125 134.324219 C 114.546875 132.597656 116.195312 128.140625 114.464844 124.378906 L 102.019531 97.316406 C 102.019531 97.316406 119.597656 97.316406 119.625 97.316406 C 125.082031 97.316406 128.765625 91.402344 126.351562 86.503906 L 105.265625 43.664062 C 134.859375 24.992188 168.921875 15 204.339844 15 C 204.570312 15 204.789062 15 205.015625 15 C 254.539062 15 301.476562 34.570312 337.210938 70.128906 C 340.148438 73.046875 344.894531 73.035156 347.816406 70.101562 Z M 347.816406 70.101562 " style=" stroke:none;fill-rule:nonzero;fill:rgb(0%,0%,0%);fill-opacity:1;" />
</g>
</svg>